PathFileType	4	(X/Y/Z)	Walk10.trc
DataRate	CameraRate	NumFrames	NumMarkers	Units	OrigDataRate	OrigDataStartFrame	OrigNumFrames
200.000000	200.000000	7	59	mm	200.000000	274	470
Frame#	Times		RCAR		LElbow		LFA1		LWRU		LTH3		LLFC		LTB1		LTB3		RTH2		LCAR		LTH2		LMT5		LMT1		LToe		LASI		LBHD		LUA1		C7		RFA1		RWRU		RPSI		T10		LTH4		LPSI		LACR1		LLMAL		RBHD		RUA1		LElbowM		LFHD		RElbow		LTB2		LWRR		RACR1		RFHD		RToe		RElbowM		RTB2		RLFC		RCAL		RMT5		RLMAL		LMFC		RTB1		RTH3		STRN		RTB4		RASI		RTB3		RMT1		RMFC		LTB4		RTH4		LTH1		LCAL		LMMAL		RMMAL		RTH1		RWRR
			X1	Y1	Z1	X2	Y2	Z2	X3	Y3	Z3	X4	Y4	Z4	X5	Y5	Z5	X6	Y6	Z6	X7	Y7	Z7	X8	Y8	Z8	X9	Y9	Z9	X10	Y10	Z10	X11	Y11	Z11	X12	Y12	Z12	X13	Y13	Z13	X14	Y14	Z14	X15	Y15	Z15	X16	Y16	Z16	X17	Y17	Z17	X18	Y18	Z18	X19	Y19	Z19	X20	Y20	Z20	X21	Y21	Z21	X22	Y22	Z22	X23	Y23	Z23	X24	Y24	Z24	X25	Y25	Z25	X26	Y26	Z26	X27	Y27	Z27	X28	Y28	Z28	X29	Y29	Z29	X30	Y30	Z30	X31	Y31	Z31	X32	Y32	Z32	X33	Y33	Z33	X34	Y34	Z34	X35	Y35	Z35	X36	Y36	Z36	X37	Y37	Z37	X38	Y38	Z38	X39	Y39	Z39	X40	Y40	Z40	X41	Y41	Z41	X42	Y42	Z42	X43	Y43	Z43	X44	Y44	Z44	X45	Y45	Z45	X46	Y46	Z46	X47	Y47	Z47	X48	Y48	Z48	X49	Y49	Z49	X50	Y50	Z50	X51	Y51	Z51	X52	Y52	Z52	X53	Y53	Z53	X54	Y54	Z54	X55	Y55	Z55	X56	Y56	Z56	X57	Y57	Z57	X58	Y58	Z58	X59	Y59	Z59

274	1.37	343.99	929.13	422.35	-28.352	1123	-165.69	-38.561	972.6	-177.03	-32.362	838.63	-168.74	192.49	604.68	-21.119	218.11	508.6	-6.1853	294.83	389.03	73.171	310.58	204.07	81.984	70.459	667.53	278.72	25.099	783.77	-187.27	225.87	717.36	-18.236	384.99	25.629	15.425	433.47	46.127	95.091	483.11	44.726	76.867	141.43	1008.4	-7.6729	99.991	1630.7	34.977	29.364	1268.8	-149.58	38.639	1491.7	106.69	180.03	1009.6	444.53	276.8	915.11	424.38	-79.5	1007.4	162.36	-78.797	1271.2	110.46	162.88	690.32	-41.667	-79.127	999.22	85.457	103.79	1437.5	-60.668	282.97	68.106	47.556	101	1634.3	176.81	95.896	1284.4	378.61	-53.936	1119.7	-92.665	282.15	1623.1	78.225	82.385	1134.4	438.56	275.71	294.92	8.1247	43.311	833.74	-134.54	-45.154	1407.9	243.57	282.39	1624.1	154.8	-162.96	26.394	170.12	51.134	1102.6	366.18	-182.26	286.57	238.71	-81.146	488.5	267.86	-380.57	125.8	135.74	-264.52	32.591	219	-320.89	128.87	190.65	225.61	521	123.97	-95.758	353.48	191.28	-28.693	597.99	283.83	204.18	1224.4	113.2	-152.41	281.05	175.13	114.03	1010.3	284.22	-211.31	210.12	162.6	-209.87	37.444	146.33	-52.975	503.36	138.92	302.32	299.7	78.969	2.9643	685.66	300.77	135.11	778.2	-57.173	230.75	26.296	96.009	311.42	95.944	126.25	-273.35	137.46	115.87	29.4	777.31	311.37	313.32	957.73	370.25
275	1.375	348.14	928.13	422.05	-21.384	1122.6	-166.18	-31.535	972.23	-177.41	-25.326	838.29	-169.04	200.09	605.41	-21.369	225.67	509.26	-6.7476	300.72	388.7	72.863	313.63	203.52	81.94	78.957	667.33	279.02	32.102	783.39	-187.52	233.17	718.18	-18.223	385.4	24.499	14.963	434.34	44.441	95.067	484.34	41.796	76.974	148.38	1008.8	-7.9174	106.46	1630.9	33.736	36.157	1268.5	-150.23	45.149	1491.9	105.65	184.46	1009.3	443.66	280.85	914.43	423.85	-72.676	1007.3	162.32	-72.19	1271.2	109.9	170.23	691.01	-41.602	-72.174	999.35	85.364	110.4	1437.3	-61.538	284.01	67.985	47.577	107.27	1634.6	175.57	101.64	1284.7	377.71	-46.97	1119.3	-93.138	288.57	1623.4	77.248	87.41	1134.6	437.4	280.4	294.77	7.8174	50.352	833.39	-134.82	-38.751	1408.4	242.61	288.73	1624.5	153.81	-163.19	26.364	170.03	56.424	1103	364.8	-175.7	287.56	239.54	-71.683	487.62	268.62	-376.12	131.19	136.02	-263.48	33.919	218.86	-316.96	132.34	191.19	233	521.87	123.28	-87.949	352.89	192.36	-19.626	597.06	284.39	210.98	1224.8	112.66	-145.78	281.45	176.03	122.69	1011.4	282.82	-205.85	211.54	163.41	-209.3	37.374	146.31	-43.011	502.03	139.84	306.78	299.26	78.795	11.378	685.02	301.03	142.23	778.8	-57.125	231.04	26.852	95.89	312.69	95.431	126.34	-268.88	139.92	116.7	37.085	776.9	311.31	317.79	956.91	369.85
276	1.38	352.13	927.07	421.78	-14.367	1122.3	-166.67	-24.411	971.91	-177.79	-18.146	837.98	-169.32	207.64	606.16	-21.667	233.11	509.91	-7.2827	306.45	388.39	72.601	316.51	203.03	81.94	87.636	667.15	279.36	39.276	783.08	-187.74	240.39	719.04	-18.273	385.75	23.622	14.581	435.09	43.057	95.077	485.42	39.276	77.117	155.26	1009.3	-8.1858	112.92	1631	32.501	42.979	1268.2	-150.87	51.639	1492.1	104.63	188.78	1009.1	442.78	284.74	913.73	423.33	-65.887	1007.2	162.31	-65.611	1271.3	109.35	177.52	691.71	-41.634	-65.246	999.51	85.281	117.01	1437.3	-62.383	284.93	67.935	47.622	113.55	1635	174.34	107.35	1285.1	376.8	-39.967	1119	-93.621	294.97	1623.7	76.259	92.373	1134.9	436.23	284.94	294.66	7.5499	57.534	833.12	-135.07	-32.355	1408.8	241.68	295.06	1625	152.81	-163.36	26.363	169.97	61.634	1103.5	363.4	-168.81	288.6	240.44	-61.895	486.71	269.46	-371.21	136.76	136.28	-262.24	35.433	218.74	-312.67	135.92	191.76	240.45	522.81	122.62	-79.794	352.29	193.55	-10.316	596.1	284.99	217.74	1225.2	112.12	-138.8	281.88	177	131.27	1012.4	281.41	-200.02	213.01	164.28	-208.61	37.373	146.29	-32.683	500.61	140.83	311.08	298.86	78.662	19.962	684.36	301.32	149.28	779.41	-57.173	231.3	27.342	95.777	313.79	94.998	126.47	-264.02	142.44	117.59	44.874	776.48	311.26	322.12	956.04	369.46
277	1.385	355.96	925.94	421.52	-7.3014	1122	-167.17	-17.186	971.62	-178.18	-10.82	837.72	-169.58	215.09	606.94	-22.002	240.36	510.52	-7.7811	311.99	388.09	72.393	319.21	202.59	81.987	96.486	667	279.73	46.621	782.83	-187.94	247.53	719.91	-18.391	386.05	22.971	14.282	435.72	41.949	95.119	486.37	37.147	77.292	162.06	1009.9	-8.4774	119.36	1631.3	31.278	49.829	1268	-151.5	58.105	1492.4	103.63	192.99	1008.9	441.9	288.48	913	422.82	-59.135	1007.2	162.31	-59.063	1271.5	108.82	184.73	692.43	-41.753	-58.348	999.71	85.201	123.61	1437.3	-63.2	285.74	67.944	47.692	119.82	1635.4	173.13	113.04	1285.4	375.89	-32.931	1118.8	-94.115	301.36	1624.1	75.261	97.278	1135.2	435.05	289.3	294.58	7.3298	64.857	832.93	-135.29	-25.973	1409.3	240.79	301.39	1625.4	151.8	-163.41	26.402	169.96	66.764	1104.1	361.96	-161.56	289.69	241.4	-51.794	485.74	270.35	-365.84	142.46	136.56	-260.75	37.143	218.65	-307.99	139.61	192.35	247.92	523.8	122	-71.296	351.69	194.82	-0.77603	595.1	285.64	224.47	1225.7	111.6	-131.45	282.35	178.04	139.75	1013.5	280.02	-193.82	214.54	165.21	-207.75	37.468	146.3	-21.998	499.11	141.89	315.2	298.5	78.577	28.705	683.67	301.63	156.27	780.05	-57.311	231.53	27.764	95.677	314.71	94.635	126.64	-258.76	145.02	118.51	52.756	776.06	311.2	326.31	955.12	369.1
278	1.39	359.65	924.75	421.28	-0.18692	1121.8	-167.68	-9.8624	971.38	-178.56	-3.3482	837.5	-169.83	222.41	607.71	-22.36	247.39	511.08	-8.2375	317.31	387.8	72.242	321.74	202.19	82.08	105.49	666.88	280.14	54.139	782.64	-188.11	254.56	720.78	-18.581	386.3	22.512	14.062	436.24	41.086	95.187	487.19	35.382	77.488	168.79	1010.5	-8.7912	125.78	1631.5	30.072	56.709	1267.9	-152.12	64.541	1492.7	102.66	197.09	1008.7	441.02	292.07	912.25	422.34	-52.42	1007.1	162.33	-52.548	1271.7	108.3	191.84	693.16	-41.947	-51.482	999.93	85.114	130.2	1437.3	-63.984	286.45	67.999	47.785	126.1	1635.9	171.92	118.69	1285.9	374.98	-25.863	1118.6	-94.621	307.74	1624.5	74.256	102.13	1135.6	433.86	293.47	294.51	7.1601	72.319	832.81	-135.48	-19.609	1409.9	239.93	307.71	1625.9	150.79	-163.3	26.489	170	71.816	1104.7	360.5	-153.97	290.83	242.41	-41.393	484.75	271.31	-360.01	148.29	136.86	-258.98	39.062	218.6	-302.91	143.39	192.98	255.38	524.8	121.4	-62.464	351.09	196.16	8.9798	594.07	286.34	231.16	1226.3	111.09	-123.75	282.86	179.13	148.08	1014.5	278.65	-187.24	216.12	166.17	-206.68	37.688	146.34	-10.969	497.54	143	319.13	298.15	78.538	37.595	682.97	301.97	163.17	780.7	-57.528	231.72	28.119	95.591	315.49	94.331	126.84	-253.12	147.67	119.48	60.722	775.63	311.14	330.38	954.14	368.75
279	1.395	363.19	923.49	421.06	6.9762	1121.6	-168.19	-2.4382	971.17	-178.95	4.2692	837.32	-170.06	229.54	608.47	-22.733	254.15	511.58	-8.6498	322.38	387.5	72.143	324.09	201.82	82.211	114.65	666.79	280.58	61.831	782.52	-188.26	261.48	721.61	-18.844	386.5	22.215	13.912	436.67	40.436	95.277	487.89	33.949	77.693	175.42	1011.2	-9.1252	132.17	1631.8	28.887	63.616	1267.8	-152.73	70.943	1493.1	101.72	201.08	1008.5	440.15	295.52	911.48	421.88	-45.744	1007.1	162.34	-46.068	1271.9	107.79	198.81	693.87	-42.204	-44.654	1000.2	85.014	136.78	1437.4	-64.733	287.06	68.09	47.899	132.37	1636.4	170.74	124.31	1286.3	374.07	-18.764	1118.4	-95.141	314.09	1624.9	73.248	106.92	1136	432.67	297.45	294.44	7.0401	79.919	832.76	-135.63	-13.269	1410.5	239.1	314.01	1626.5	149.77	-162.99	26.638	170.11	76.792	1105.4	359.03	-146.02	292.02	243.47	-30.709	483.71	272.31	-353.73	154.2	137.19	-256.89	41.199	218.62	-297.44	147.24	193.64	262.79	525.78	120.84	-53.308	350.48	197.56	18.935	593.01	287.07	237.81	1226.9	110.61	-115.7	283.42	180.25	156.22	1015.6	277.34	-180.29	217.76	167.17	-205.36	38.063	146.44	0.38561	495.92	144.16	322.87	297.82	78.542	46.618	682.26	302.34	170.01	781.37	-57.81	231.89	28.412	95.52	316.14	94.073	127.07	-247.1	150.36	120.48	68.757	775.2	311.09	334.31	953.11	368.42
280	1.4	366.59	922.18	420.85	14.187	1121.4	-168.71	5.0858	970.99	-179.33	12.032	837.18	-170.28	236.43	609.19	-23.111	260.62	512.01	-9.0188	327.21	387.18	72.089	326.27	201.46	82.373	123.93	666.73	281.05	69.694	782.46	-188.38	268.26	722.37	-19.176	386.66	22.048	13.822	437.01	39.968	95.381	488.48	32.812	77.899	181.96	1011.8	-9.4766	138.53	1632.1	27.728	70.552	1267.7	-153.33	77.308	1493.5	100.8	204.98	1008.3	439.28	298.83	910.7	421.46	-39.109	1007.1	162.35	-39.622	1272.2	107.3	205.63	694.57	-42.507	-37.865	1000.5	84.893	143.35	1437.5	-65.446	287.58	68.202	48.029	138.63	1636.9	169.59	129.9	1286.8	373.16	-11.635	1118.3	-95.676	320.42	1625.3	72.239	111.67	1136.4	431.48	301.21	294.37	6.9652	87.657	832.79	-135.76	-6.9597	1411.1	238.3	320.29	1627	148.75	-162.4	26.867	170.31	81.696	1106.1	357.53	-137.73	293.24	244.56	-19.762	482.66	273.35	-347.02	160.16	137.57	-254.45	43.559	218.7	-291.57	151.17	194.34	270.09	526.7	120.31	-43.845	349.89	198.99	29.07	591.94	287.83	244.41	1227.5	110.15	-107.31	284.03	181.39	164.16	1016.5	276.09	-172.98	219.46	168.19	-203.74	38.623	146.6	12.041	494.27	145.36	326.41	297.48	78.579	55.758	681.54	302.72	176.76	782.04	-58.145	232.03	28.648	95.463	316.68	93.852	127.31	-240.7	153.11	121.51	76.85	774.76	311.04	338.13	952.04	368.1
